<svg width="199" height="90" viewBox="0 0 199 90" fill="none" xmlns="http://www.w3.org/2000/svg">
<path d="M30.48 31.142C32.0587 31.142 33.292 31.586 34.18 32.474C35.1173 33.362 35.586 34.5953 35.586 36.174C35.586 36.5687 35.5613 36.988 35.512 37.432C35.4627 37.8267 35.364 38.172 35.216 38.468C34.5747 38.3693 33.8593 38.2953 33.07 38.246C32.2807 38.1473 31.3433 38.098 30.258 38.098C28.038 38.098 25.818 38.2953 23.598 38.69C21.378 39.0847 19.2567 39.4053 17.234 39.652C15.014 44.8813 13.1887 49.79 11.758 54.378C10.3273 58.966 9.21733 63.5047 8.428 67.994C6.75067 67.5993 5.27067 66.884 3.988 65.848C2.70533 64.812 1.49667 63.3567 0.362 61.482C0.707334 60.6927 1.12667 59.7553 1.62 58.67C2.11333 57.5353 2.70533 56.1293 3.396 54.452C4.08667 52.7253 4.90067 50.6533 5.838 48.236C6.82467 45.7693 7.984 42.834 9.316 39.43C7.244 38.7393 5.88733 37.5307 5.246 35.804C5.49267 35.5573 6.18333 35.286 7.318 34.99C8.45267 34.6447 9.834 34.2747 11.462 33.88C12.202 31.956 12.8433 30.254 13.386 28.774C13.9287 27.2447 14.422 25.814 14.866 24.482C15.31 23.1007 15.7047 21.7687 16.05 20.486C16.4447 19.154 16.79 17.748 17.086 16.268H16.716C14.8413 16.268 13.312 15.824 12.128 14.936C10.9933 14.048 10.426 12.8887 10.426 11.458C10.426 11.0633 10.4753 10.5947 10.574 10.052C10.722 9.50933 10.8947 9.04066 11.092 8.646C12.0293 8.794 12.942 8.89266 13.83 8.942C14.7673 8.99133 15.976 9.016 17.456 9.016C20.564 9.016 23.4747 8.942 26.188 8.794C28.9013 8.59666 31.3433 8.39933 33.514 8.202C35.734 8.00466 37.6333 7.832 39.212 7.684C40.7907 7.48666 41.9993 7.388 42.838 7.388C43.9727 7.388 44.984 7.98 45.872 9.164C46.76 10.348 47.4507 12.0253 47.944 14.196C46.3653 14.048 45.0827 13.9493 44.096 13.9C43.1587 13.8507 42.32 13.826 41.58 13.826C39.064 13.826 36.7453 13.9493 34.624 14.196C32.552 14.3933 30.5787 14.64 28.704 14.936C28.408 15.38 28.0627 15.9473 27.668 16.638C27.3227 17.3287 26.854 18.3153 26.262 19.598C25.67 20.8313 24.9053 22.4593 23.968 24.482C23.08 26.5047 21.9453 29.07 20.564 32.178C22.488 31.882 24.3133 31.6353 26.04 31.438C27.816 31.2407 29.296 31.142 30.48 31.142ZM37.1394 57.042C37.1394 56.598 37.1641 56.0553 37.2134 55.414C37.3121 54.7233 37.4601 53.8353 37.6574 52.75C37.8548 51.6153 38.1014 50.2587 38.3974 48.68C38.7428 47.1013 39.1621 45.202 39.6554 42.982C39.7541 42.4887 39.9761 41.6993 40.3214 40.614C40.6668 39.5287 41.1108 38.394 41.6534 37.21C42.2454 35.9767 42.9361 34.7927 43.7254 33.658C44.5641 32.5233 45.5508 31.6847 46.6854 31.142C47.5241 31.3393 48.6341 31.8573 50.0154 32.696C51.3968 33.4853 52.5808 34.5953 53.5674 36.026C52.4328 37.3087 51.4708 38.5913 50.6814 39.874C49.9414 41.1567 49.2508 42.4887 48.6094 43.87C48.0174 45.2513 47.4501 46.682 46.9074 48.162C46.4141 49.642 45.8468 51.196 45.2054 52.824C44.6628 54.2053 44.1694 55.636 43.7254 57.116C43.2814 58.5467 43.0348 59.8047 42.9854 60.89C42.9854 61.778 42.9608 62.3947 42.9114 62.74C42.9114 63.1347 42.7881 63.332 42.5414 63.332C42.3441 63.332 41.9494 63.2087 41.3574 62.962C40.7654 62.7153 40.1488 62.3453 39.5074 61.852C38.9154 61.3093 38.3728 60.6433 37.8794 59.854C37.3861 59.0647 37.1394 58.1273 37.1394 57.042ZM51.2734 24.926C51.2734 24.63 51.3474 24.186 51.4954 23.594C51.2488 23.3473 51.0268 22.9773 50.8294 22.484C50.6814 21.9907 50.6074 21.5467 50.6074 21.152C50.6074 20.708 50.6568 20.116 50.7554 19.376C50.9034 18.5867 51.0761 17.748 51.2734 16.86C51.4708 15.972 51.7174 15.0593 52.0134 14.122C52.3094 13.1353 52.6054 12.2473 52.9014 11.458C53.4934 11.458 54.2088 11.6307 55.0474 11.976C55.9354 12.272 56.8234 12.6913 57.7114 13.234C58.5994 13.7273 59.4134 14.2947 60.1534 14.936C60.8934 15.528 61.4608 16.0953 61.8554 16.638C61.3128 17.1807 60.5974 17.9453 59.7094 18.932C58.8214 19.8693 57.9581 20.8807 57.1194 21.966C56.2808 23.002 55.5161 23.9887 54.8254 24.926C54.1348 25.8633 53.6908 26.5293 53.4934 26.924C52.9014 26.8253 52.3834 26.5787 51.9394 26.184C51.4954 25.74 51.2734 25.3207 51.2734 24.926ZM52.2597 57.264C52.2597 55.0933 52.7777 52.0593 53.8137 48.162C54.8497 44.2153 56.305 39.6273 58.1797 34.398C61.2384 26.0607 64.0997 19.1293 66.7637 13.604C69.477 8.02933 72.1164 3.688 74.6817 0.579997C75.2737 0.678662 75.989 0.925329 76.8277 1.32C77.7157 1.71466 78.579 2.15866 79.4177 2.652C80.2564 3.096 80.9964 3.56466 81.6377 4.058C82.3284 4.55133 82.7724 4.946 82.9697 5.242C79.1217 9.78067 75.7424 14.6647 72.8317 19.894C69.921 25.1233 67.257 31.1173 64.8397 37.876C62.7677 43.6973 61.189 48.9513 60.1037 53.638C59.0184 58.2753 58.4757 62.148 58.4757 65.256C58.4757 66.0947 58.4757 66.6127 58.4757 66.81C58.4757 67.0073 58.5004 67.2047 58.5497 67.402C57.859 67.3033 57.267 67.1307 56.7737 66.884C56.2804 66.6373 55.9597 66.3413 55.8117 65.996C55.713 65.7493 55.4417 65.3793 54.9977 64.886C54.5537 64.442 54.159 64.0967 53.8137 63.85C53.3697 63.554 52.9997 62.7893 52.7037 61.556C52.4077 60.2733 52.2597 58.8427 52.2597 57.264ZM76.0449 64.59C73.2329 64.294 70.9883 63.0607 69.3109 60.89C67.6336 58.7193 66.7949 55.9567 66.7949 52.602C66.7949 50.6287 67.0909 48.5813 67.6829 46.46C68.2749 44.3387 69.1136 42.2913 70.1989 40.318C71.2843 38.2953 72.5669 36.396 74.0469 34.62C75.5269 32.844 77.1303 31.3147 78.8569 30.032C81.5703 28.0093 84.1109 26.998 86.4789 26.998C88.0576 27.8367 89.6116 29.588 91.1409 32.252C91.3876 32.252 91.6096 32.252 91.8069 32.252C92.0043 32.2027 92.2263 32.178 92.4729 32.178C95.0876 32.178 96.3949 34.4967 96.3949 39.134C96.3949 42.242 95.8769 45.202 94.8409 48.014C93.8543 50.7767 92.4483 53.2927 90.6229 55.562C88.8469 57.8313 86.7009 59.7553 84.1849 61.334C81.7183 62.8633 79.0049 63.9487 76.0449 64.59ZM79.8189 41.28C78.9803 42.4147 78.1909 43.648 77.4509 44.98C76.7109 46.312 76.0696 47.6687 75.5269 49.05C74.9843 50.382 74.5649 51.6893 74.2689 52.972C73.9729 54.2053 73.8249 55.3153 73.8249 56.302C73.8249 57.486 74.0223 58.6207 74.4169 59.706C74.8116 60.7913 75.2556 61.408 75.7489 61.556C77.9689 61.0627 79.9916 60.15 81.8169 58.818C83.6916 57.4367 85.2949 55.7347 86.6269 53.712C88.0083 51.6893 89.0689 49.3953 89.8089 46.83C90.5983 44.2647 90.9929 41.5267 90.9929 38.616C90.9929 37.3333 90.9189 36.322 90.7709 35.582C90.6229 34.842 90.3763 34.2007 90.0309 33.658C87.8603 34.2993 85.9116 35.3353 84.1849 36.766C82.5076 38.1967 81.0523 39.7013 79.8189 41.28ZM123.287 32.548C123.238 33.4853 123.065 34.472 122.769 35.508C122.522 36.4947 122.202 37.4073 121.807 38.246C121.412 39.0353 120.993 39.7013 120.549 40.244C120.105 40.7867 119.686 41.058 119.291 41.058C118.748 41.0087 118.428 40.6387 118.329 39.948C118.329 39.8 118.378 39.578 118.477 39.282C118.625 38.9367 118.773 38.5667 118.921 38.172C119.069 37.7773 119.192 37.3827 119.291 36.988C119.439 36.5933 119.513 36.248 119.513 35.952C119.513 35.2613 119.34 34.694 118.995 34.25C118.699 33.7567 118.28 33.51 117.737 33.51C115.764 33.51 114.259 34.7433 113.223 37.21C112.187 39.6767 111.669 43.3027 111.669 48.088C111.669 48.5813 111.694 48.8773 111.743 48.976C112.779 48.9267 113.692 48.902 114.481 48.902C115.32 48.8527 116.134 48.828 116.923 48.828C116.972 48.9267 116.997 49.124 116.997 49.42C116.997 49.864 116.898 50.1847 116.701 50.382C115.566 50.6287 114.654 50.8507 113.963 51.048C113.322 51.196 112.828 51.344 112.483 51.492C112.138 51.64 111.916 51.8127 111.817 52.01C111.768 52.158 111.743 52.38 111.743 52.676C111.743 53.0707 111.743 53.4653 111.743 53.86C111.792 54.2547 111.817 54.748 111.817 55.34C111.817 59.484 110.682 62.814 108.413 65.33C106.193 67.846 103.085 69.3013 99.089 69.696C98.3983 69.6467 97.683 69.4493 96.943 69.104C96.203 68.7587 95.4877 68.3147 94.797 67.772C94.1557 67.2293 93.5883 66.6127 93.095 65.922C92.6017 65.2807 92.2563 64.6147 92.059 63.924C92.059 62.0493 92.4537 60.2733 93.243 58.596C94.0323 56.8693 95.093 55.3647 96.425 54.082C97.8063 52.75 99.4097 51.6893 101.235 50.9C103.11 50.0613 105.132 49.568 107.303 49.42C107.303 48.1867 107.18 46.978 106.933 45.794C106.686 44.61 106.415 43.4753 106.119 42.39C105.872 41.2553 105.626 40.17 105.379 39.134C105.132 38.0487 105.009 36.988 105.009 35.952C105.009 34.62 105.28 33.3127 105.823 32.03C106.366 30.698 107.081 29.4893 107.969 28.404C108.857 27.2693 109.893 26.3073 111.077 25.518C112.261 24.7287 113.494 24.186 114.777 23.89C115.32 24.038 116.035 24.482 116.923 25.222C117.86 25.9127 118.773 26.702 119.661 27.59C120.549 28.478 121.338 29.3907 122.029 30.328C122.72 31.216 123.139 31.956 123.287 32.548ZM98.867 66.292C100.051 65.7987 101.161 65.0833 102.197 64.146C103.282 63.2087 104.22 62.148 105.009 60.964C105.798 59.78 106.415 58.522 106.859 57.19C107.352 55.858 107.599 54.5507 107.599 53.268C106.612 53.416 105.527 53.8847 104.343 54.674C103.159 55.414 102.049 56.3267 101.013 57.412C99.977 58.448 99.1137 59.5333 98.423 60.668C97.7323 61.8027 97.387 62.7893 97.387 63.628C97.387 64.7133 97.8803 65.6013 98.867 66.292ZM129.851 64.59C127.039 64.294 124.794 63.0607 123.117 60.89C121.44 58.7193 120.601 55.9567 120.601 52.602C120.601 50.6287 120.897 48.5813 121.489 46.46C122.081 44.3387 122.92 42.2913 124.005 40.318C125.09 38.2953 126.373 36.396 127.853 34.62C129.333 32.844 130.936 31.3147 132.663 30.032C135.376 28.0093 137.917 26.998 140.285 26.998C141.864 27.8367 143.418 29.588 144.947 32.252C145.194 32.252 145.416 32.252 145.613 32.252C145.81 32.2027 146.032 32.178 146.279 32.178C148.894 32.178 150.201 34.4967 150.201 39.134C150.201 42.242 149.683 45.202 148.647 48.014C147.66 50.7767 146.254 53.2927 144.429 55.562C142.653 57.8313 140.507 59.7553 137.991 61.334C135.524 62.8633 132.811 63.9487 129.851 64.59ZM133.625 41.28C132.786 42.4147 131.997 43.648 131.257 44.98C130.517 46.312 129.876 47.6687 129.333 49.05C128.79 50.382 128.371 51.6893 128.075 52.972C127.779 54.2053 127.631 55.3153 127.631 56.302C127.631 57.486 127.828 58.6207 128.223 59.706C128.618 60.7913 129.062 61.408 129.555 61.556C131.775 61.0627 133.798 60.15 135.623 58.818C137.498 57.4367 139.101 55.7347 140.433 53.712C141.814 51.6893 142.875 49.3953 143.615 46.83C144.404 44.2647 144.799 41.5267 144.799 38.616C144.799 37.3333 144.725 36.322 144.577 35.582C144.429 34.842 144.182 34.2007 143.837 33.658C141.666 34.2993 139.718 35.3353 137.991 36.766C136.314 38.1967 134.858 39.7013 133.625 41.28ZM182.447 29.514C182.694 29.514 183.212 29.5387 184.001 29.588C184.84 29.588 185.777 29.6127 186.813 29.662C187.849 29.662 188.885 29.7113 189.921 29.81C191.006 29.9087 191.919 30.032 192.659 30.18C193.152 30.7227 193.522 31.2407 193.769 31.734C192.634 33.214 191.549 34.8913 190.513 36.766C189.477 38.6407 188.515 40.5893 187.627 42.612C186.739 44.5853 185.925 46.5587 185.185 48.532C184.494 50.456 183.878 52.2567 183.335 53.934C182.842 55.562 182.422 56.9927 182.077 58.226C181.781 59.4593 181.608 60.3473 181.559 60.89C181.46 61.778 181.411 62.3947 181.411 62.74C181.46 63.1347 181.362 63.332 181.115 63.332C180.918 63.332 180.523 63.2087 179.931 62.962C179.339 62.7153 178.722 62.3453 178.081 61.852C177.489 61.3093 176.946 60.6433 176.453 59.854C175.96 59.0647 175.713 58.1273 175.713 57.042C175.713 55.6607 175.91 53.934 176.305 51.862C176.7 49.7407 177.218 47.57 177.859 45.35C178.5 43.13 179.24 41.0087 180.079 38.986C180.918 36.914 181.781 35.2367 182.669 33.954C181.09 33.8553 179.512 33.7813 177.933 33.732C176.354 33.6333 174.776 33.584 173.197 33.584C172.654 33.584 172.112 33.584 171.569 33.584C171.026 33.584 170.484 33.6087 169.941 33.658C167.474 41.4033 165.254 48.162 163.281 53.934C161.357 59.706 159.556 64.6393 157.879 68.734C156.251 72.878 154.672 76.2573 153.143 78.872C151.663 81.536 150.158 83.608 148.629 85.088C147.149 86.6173 145.57 87.678 143.893 88.27C142.216 88.862 140.366 89.158 138.343 89.158C134.84 89.158 131.856 87.974 129.389 85.606C129.389 85.2607 129.488 84.8907 129.685 84.496C129.882 84.1013 130.104 83.83 130.351 83.682C131.042 84.5207 131.954 85.162 133.089 85.606C134.224 86.0993 135.408 86.346 136.641 86.346C137.924 86.346 139.108 86.05 140.193 85.458C141.229 84.9153 142.265 83.978 143.301 82.646C144.288 81.314 145.274 79.5627 146.261 77.392C147.297 75.2213 148.407 72.5327 149.591 69.326C151.318 64.59 153.094 59.2127 154.919 53.194C156.794 47.1753 158.693 40.8113 160.617 34.102C158.742 34.2007 157.188 34.324 155.955 34.472C154.722 34.62 153.908 34.7187 153.513 34.768C153.316 34.5707 153.143 34.2993 152.995 33.954C152.896 33.6087 152.847 33.288 152.847 32.992C153.636 32.7453 154.746 32.474 156.177 32.178C157.657 31.8327 159.433 31.4873 161.505 31.142C162.689 27.59 163.996 24.3833 165.427 21.522C166.858 18.6113 168.387 16.1447 170.015 14.122C171.692 12.0993 173.468 10.5453 175.343 9.46C177.267 8.37466 179.339 7.832 181.559 7.832C182.348 7.832 183.212 8.00466 184.149 8.35C185.136 8.646 186.073 8.99133 186.961 9.386C187.898 9.73133 188.737 10.0767 189.477 10.422C190.217 10.718 190.784 10.866 191.179 10.866C191.771 10.5207 192.585 10.2247 193.621 9.978C194.706 9.682 195.619 9.534 196.359 9.534C196.951 9.534 197.716 9.85466 198.653 10.496C198.209 11.1867 197.765 12.124 197.321 13.308C196.877 14.492 196.532 15.6513 196.285 16.786C195.052 20.4367 193.744 22.8047 192.363 23.89C192.116 23.89 191.894 23.742 191.697 23.446C191.549 23.1007 191.475 22.5333 191.475 21.744C191.475 21.2013 191.352 20.708 191.105 20.264C190.858 19.82 190.562 19.376 190.217 18.932C189.921 18.488 189.65 18.044 189.403 17.6C189.156 17.156 189.033 16.6873 189.033 16.194C189.033 15.898 189.058 15.5527 189.107 15.158C189.156 14.714 189.255 13.9987 189.403 13.012C188.811 12.9627 188.219 12.938 187.627 12.938C187.084 12.8887 186.542 12.864 185.999 12.864C184.075 12.864 182.348 13.3327 180.819 14.27C179.339 15.2073 178.007 16.49 176.823 18.118C175.639 19.6967 174.578 21.522 173.641 23.594C172.704 25.6167 171.865 27.738 171.125 29.958C172.852 29.8593 174.628 29.7607 176.453 29.662C178.328 29.5633 180.326 29.514 182.447 29.514Z" fill="#FF0000" style="mix-blend-mode:lighten"/>
</svg>
