<svg width="386" height="89" viewBox="0 0 386 89" fill="none" xmlns="http://www.w3.org/2000/svg">
<path d="M48.722 12.124C48.87 12.9627 48.9687 13.5547 49.018 13.9C49.1167 14.196 49.166 14.6153 49.166 15.158C49.166 16.786 48.796 18.3153 48.056 19.746C47.3653 21.1273 46.4033 22.114 45.17 22.706C44.1833 21.374 42.9747 20.2393 41.544 19.302C40.1133 18.3153 38.5347 17.526 36.808 16.934C35.1307 16.2927 33.3793 15.824 31.554 15.528C29.7287 15.232 27.9527 15.084 26.226 15.084C24.4993 15.084 22.8713 15.232 21.342 15.528C19.862 15.7747 18.53 16.1447 17.346 16.638C16.2113 17.082 15.2987 17.6493 14.608 18.34C13.9667 19.0307 13.646 19.82 13.646 20.708C13.794 21.7933 14.46 22.9033 15.644 24.038C16.828 25.1233 18.2833 26.2087 20.01 27.294C21.7367 28.33 23.636 29.366 25.708 30.402C27.8293 31.438 29.9013 32.4247 31.924 33.362C34.44 34.546 36.6107 35.656 38.436 36.692C40.2613 37.6787 41.766 38.7887 42.95 40.022C44.134 41.206 45.022 42.5627 45.614 44.092C46.206 45.6213 46.502 47.4713 46.502 49.642C46.502 52.158 46.0827 54.526 45.244 56.746C44.4053 58.9167 43.172 60.816 41.544 62.444C39.9653 64.072 38.0413 65.33 35.772 66.218C33.5027 67.1553 30.962 67.624 28.15 67.624C25.3873 67.624 22.4027 67.2047 19.196 66.366C15.9893 65.5273 12.98 64.368 10.168 62.888C7.40533 61.4573 5.08667 59.8047 3.212 57.93C1.38667 56.006 0.474 53.9833 0.474 51.862C0.474 50.8753 0.745334 49.6173 1.288 48.088C1.88 46.5587 2.916 44.9553 4.396 43.278C4.544 44.758 5.33333 46.5093 6.764 48.532C8.244 50.5547 10.4393 52.4293 13.35 54.156C16.0633 55.7347 18.8507 56.894 21.712 57.634C24.6227 58.3247 27.336 58.67 29.852 58.67C32.6147 58.67 34.8593 58.3247 36.586 57.634C38.3127 56.9433 39.6693 56.1293 40.656 55.192C41.6427 54.2053 42.3333 53.2187 42.728 52.232C43.1227 51.2453 43.3447 50.456 43.394 49.864C43.3447 48.8773 42.876 47.94 41.988 47.052C41.1493 46.1147 39.99 45.2267 38.51 44.388C37.0793 43.5 35.402 42.612 33.478 41.724C31.554 40.836 29.556 39.948 27.484 39.06C24.376 37.6787 21.6873 36.396 19.418 35.212C17.198 33.9787 15.348 32.7453 13.868 31.512C12.4373 30.2293 11.3767 28.8973 10.686 27.516C10.0447 26.1347 9.724 24.556 9.724 22.78C9.724 20.0173 10.5627 17.4027 12.24 14.936C13.9173 12.4693 16.3347 10.5947 19.492 9.312C21.0707 8.62133 22.748 8.128 24.524 7.832C26.3493 7.536 28.1253 7.388 29.852 7.388C33.108 7.388 36.29 7.832 39.398 8.72C42.506 9.608 45.614 10.7427 48.722 12.124ZM75.447 32.104C75.9403 32.104 76.5077 32.2027 77.149 32.4C77.8397 32.548 78.4563 32.77 78.999 33.066C79.5417 33.3127 79.9857 33.584 80.331 33.88C80.7257 34.176 80.923 34.4473 80.923 34.694C79.9363 36.766 79.0237 38.8627 78.185 40.984C77.3463 43.056 76.631 45.054 76.039 46.978C75.447 48.902 74.9783 50.7027 74.633 52.38C74.337 54.0573 74.189 55.5127 74.189 56.746C74.189 58.1273 74.337 59.2867 74.633 60.224C74.929 61.112 75.4223 61.7533 76.113 62.148C75.521 62.5427 74.7563 62.8633 73.819 63.11C72.8817 63.3567 72.043 63.48 71.303 63.48C68.639 63.48 67.307 61.6547 67.307 58.004C67.307 55.192 68.2443 51.344 70.119 46.46C69.1323 48.7293 67.9977 50.8753 66.715 52.898C65.4323 54.8713 64.125 56.6227 62.793 58.152C61.461 59.6813 60.1043 60.9393 58.723 61.926C57.391 62.8633 56.1577 63.4307 55.023 63.628C53.1977 63.5293 51.7177 62.666 50.583 61.038C49.4483 59.3607 48.881 57.2393 48.881 54.674C48.881 51.9113 49.473 49.0007 50.657 45.942C51.841 42.8833 53.3457 40.0467 55.171 37.432C57.0457 34.8173 59.0683 32.6467 61.239 30.92C63.4096 29.144 65.5063 28.2067 67.529 28.108C68.0223 28.256 68.565 28.552 69.157 28.996C69.7983 29.44 70.3903 29.958 70.933 30.55C71.525 31.142 72.0183 31.7587 72.413 32.4C72.8077 32.992 73.0297 33.51 73.079 33.954C71.1057 34.25 69.0583 35.212 66.937 36.84C64.865 38.468 62.9657 40.4413 61.239 42.76C59.5617 45.0293 58.1803 47.4713 57.095 50.086C56.0097 52.7007 55.467 55.1427 55.467 57.412C55.467 58.3493 55.8123 58.9413 56.503 59.188C57.9337 58.892 59.5863 57.6833 61.461 55.562C63.3357 53.3913 65.605 50.0613 68.269 45.572C68.7623 44.684 69.305 43.6973 69.897 42.612C70.5383 41.5267 71.1797 40.392 71.821 39.208C72.4623 38.024 73.079 36.84 73.671 35.656C74.3123 34.4227 74.9043 33.2387 75.447 32.104ZM125.229 39.282C124.439 39.3313 123.477 39.8493 122.343 40.836C121.208 41.7733 119.975 43.0067 118.643 44.536C117.36 46.016 116.003 47.6687 114.573 49.494C113.191 51.3193 111.835 53.1447 110.503 54.97C109.22 56.746 108.011 58.4233 106.877 60.002C105.742 61.5807 104.78 62.8387 103.991 63.776C102.905 63.332 101.968 62.6907 101.179 61.852C100.389 60.964 99.8221 59.8787 99.4767 58.596C99.7234 57.0667 100.069 55.488 100.513 53.86C100.957 52.1827 101.524 50.456 102.215 48.68C102.955 46.904 103.843 45.054 104.879 43.13C105.964 41.1567 107.271 39.0847 108.801 36.914C108.061 36.9633 107.049 37.506 105.767 38.542C104.484 39.5287 103.103 40.836 101.623 42.464C100.143 44.0427 98.6134 45.8433 97.0347 47.866C95.4561 49.8393 93.9761 51.788 92.5947 53.712C90.7694 56.2773 89.2401 58.522 88.0067 60.446C86.8227 62.37 85.9594 63.5047 85.4167 63.85C84.1341 62.9127 83.2461 61.9013 82.7527 60.816C82.2594 59.7307 81.8894 58.522 81.6427 57.19C81.6921 56.006 81.8647 54.526 82.1607 52.75C82.5061 50.974 82.9747 49.1487 83.5667 47.274C84.7014 43.6727 86.1567 40.096 87.9327 36.544C89.7581 32.992 91.5094 29.736 93.1867 26.776C94.5681 27.072 95.8014 27.5407 96.8867 28.182C98.0214 28.8233 99.2054 29.7607 100.439 30.994C99.9454 32.5233 99.1807 34.1513 98.1447 35.878C97.1087 37.5553 96.0234 39.3313 94.8887 41.206C93.7541 43.0807 92.7181 45.0047 91.7807 46.978C90.8434 48.9513 90.2267 50.9493 89.9307 52.972C91.3121 50.9987 92.9401 48.7293 94.8147 46.164C96.7387 43.5987 98.6874 41.1813 100.661 38.912C102.683 36.6427 104.681 34.7187 106.655 33.14C108.628 31.5613 110.404 30.772 111.983 30.772C112.575 30.772 113.216 30.8707 113.907 31.068C114.597 31.2653 115.239 31.512 115.831 31.808C116.423 32.104 116.916 32.4 117.311 32.696C117.705 32.9427 117.927 33.14 117.977 33.288C117.73 34.2747 117.138 35.6313 116.201 37.358C115.313 39.0353 114.351 40.8113 113.315 42.686C112.279 44.5607 111.317 46.386 110.429 48.162C109.541 49.8887 109.023 51.27 108.875 52.306C111.292 49.0007 113.561 46.016 115.683 43.352C117.804 40.6387 119.802 38.32 121.677 36.396C123.551 34.472 125.278 32.992 126.857 31.956C128.485 30.92 130.014 30.402 131.445 30.402C132.431 30.402 133.344 30.6733 134.183 31.216C135.071 31.7093 135.687 32.4493 136.033 33.436C135.589 34.916 134.849 36.692 133.813 38.764C132.826 40.836 131.815 43.0313 130.779 45.35C129.743 47.6193 128.805 49.864 127.967 52.084C127.177 54.304 126.783 56.302 126.783 58.078C126.783 59.114 126.931 59.8047 127.227 60.15C127.523 60.446 127.942 60.594 128.485 60.594C129.077 60.594 129.619 60.4953 130.113 60.298C130.655 60.0513 131.05 59.928 131.297 59.928C131.593 60.1253 131.765 60.372 131.815 60.668C131.864 60.964 131.889 61.2353 131.889 61.482C130.902 62.2713 129.891 62.9127 128.855 63.406C127.819 63.9487 126.659 64.22 125.377 64.22C124.193 64.22 123.206 64.0227 122.417 63.628C121.677 63.2333 121.06 62.6907 120.567 62C120.073 61.3093 119.728 60.52 119.531 59.632C119.333 58.744 119.235 57.782 119.235 56.746C119.235 55.0687 119.457 53.416 119.901 51.788C120.345 50.1107 120.863 48.532 121.455 47.052C122.096 45.5227 122.762 44.1167 123.453 42.834C124.143 41.502 124.735 40.318 125.229 39.282ZM143.34 62.518C145.609 60.9887 147.829 59.04 150 56.672C152.17 54.2547 154.144 51.6647 155.92 48.902C157.696 46.09 159.2 43.1793 160.434 40.17C161.667 37.1607 162.506 34.2747 162.95 31.512C162.95 30.92 162.629 30.5253 161.988 30.328C161.297 30.328 160.335 30.9447 159.102 32.178C157.918 33.362 156.586 34.8913 155.106 36.766C153.675 38.6407 152.195 40.7373 150.666 43.056C149.186 45.3747 147.829 47.6933 146.596 50.012C145.362 52.2813 144.302 54.4273 143.414 56.45C142.575 58.4233 142.106 60.0267 142.008 61.26C141.514 61.26 141.095 60.7667 140.75 59.78C140.651 59.5333 140.478 59.2867 140.232 59.04C139.985 58.744 139.59 58.3987 139.048 58.004C138.801 57.8067 138.554 57.5847 138.308 57.338C138.061 57.042 137.888 56.7953 137.79 56.598C137.592 56.2033 137.494 55.562 137.494 54.674C137.494 51.7633 137.864 48.4827 138.604 44.832C139.344 41.1813 140.306 37.4567 141.49 33.658C142.723 29.8593 144.154 26.1347 145.782 22.484C147.41 18.784 149.087 15.4047 150.814 12.346C152.59 9.28733 154.366 6.69733 156.142 4.576C157.918 2.45466 159.595 1.04866 161.174 0.357995C161.667 0.505996 162.259 0.752664 162.95 1.098C163.64 1.44333 164.331 1.838 165.022 2.282C165.712 2.726 166.354 3.17 166.946 3.614C167.587 4.058 168.056 4.45266 168.352 4.798C162.925 9.18866 158.214 14.8373 154.218 21.744C150.271 28.6013 147.04 36.7167 144.524 46.09C145.905 43.5247 147.459 41.058 149.186 38.69C150.912 36.2727 152.614 34.1513 154.292 32.326C156.018 30.5007 157.646 29.0453 159.176 27.96C160.754 26.8747 162.062 26.332 163.098 26.332C163.887 26.5293 164.652 26.8747 165.392 27.368C166.132 27.8613 166.798 28.478 167.39 29.218C167.982 29.9087 168.475 30.6733 168.87 31.512C169.264 32.3013 169.511 33.14 169.61 34.028C169.56 36.1 169.19 38.32 168.5 40.688C167.858 43.0067 166.97 45.3007 165.836 47.57C164.75 49.8393 163.492 52.01 162.062 54.082C160.68 56.154 159.2 57.9793 157.622 59.558C156.092 61.0873 154.538 62.3207 152.96 63.258C151.43 64.1953 149.975 64.664 148.594 64.664C148.002 64.664 147.385 64.59 146.744 64.442C146.152 64.3433 145.584 64.1707 145.042 63.924C144.548 63.7267 144.129 63.5047 143.784 63.258C143.488 63.0113 143.34 62.7647 143.34 62.518ZM195.708 31.364C195.511 34.4227 194.968 37.062 194.08 39.282C193.192 41.4527 191.909 43.3767 190.232 45.054C188.604 46.682 186.606 48.162 184.238 49.494C181.87 50.826 179.107 52.1087 175.95 53.342C175.95 53.638 175.925 53.9587 175.876 54.304C175.876 54.6 175.876 54.9207 175.876 55.266C175.876 55.9073 175.925 56.5733 176.024 57.264C176.123 57.9547 176.295 58.596 176.542 59.188C176.789 59.78 177.134 60.2733 177.578 60.668C178.022 61.0133 178.589 61.186 179.28 61.186C180.612 61.186 181.919 60.89 183.202 60.298C184.485 59.706 185.693 58.9907 186.828 58.152C188.012 57.264 189.097 56.3267 190.084 55.34C191.12 54.304 192.033 53.3667 192.822 52.528C193.315 52.972 193.735 53.3913 194.08 53.786C191.86 56.746 189.418 59.2127 186.754 61.186C184.139 63.11 181.648 64.3433 179.28 64.886C175.876 64.4913 173.212 63.258 171.288 61.186C169.413 59.0647 168.476 56.524 168.476 53.564C168.476 51.5413 168.747 49.494 169.29 47.422C169.882 45.3007 170.671 43.278 171.658 41.354C172.694 39.3807 173.878 37.5307 175.21 35.804C176.591 34.0773 178.047 32.5727 179.576 31.29C181.155 30.0073 182.758 28.996 184.386 28.256C186.063 27.516 187.716 27.146 189.344 27.146C191.613 27.442 193.735 28.848 195.708 31.364ZM190.602 33.806C189.27 34.0033 187.889 34.546 186.458 35.434C185.027 36.322 183.671 37.506 182.388 38.986C181.155 40.466 180.02 42.1927 178.984 44.166C177.948 46.1393 177.134 48.2607 176.542 50.53C180.489 48.5567 183.769 46.1393 186.384 43.278C188.999 40.3673 190.405 37.21 190.602 33.806ZM196.84 57.264C196.84 55.0933 197.358 52.0593 198.394 48.162C199.43 44.2153 200.885 39.6273 202.76 34.398C205.819 26.0607 208.68 19.1293 211.344 13.604C214.057 8.02933 216.697 3.688 219.262 0.579997C219.854 0.678662 220.569 0.925329 221.408 1.32C222.296 1.71466 223.159 2.15866 223.998 2.652C224.837 3.096 225.577 3.56466 226.218 4.058C226.909 4.55133 227.353 4.946 227.55 5.242C223.702 9.78067 220.323 14.6647 217.412 19.894C214.501 25.1233 211.837 31.1173 209.42 37.876C207.348 43.6973 205.769 48.9513 204.684 53.638C203.599 58.2753 203.056 62.148 203.056 65.256C203.056 66.0947 203.056 66.6127 203.056 66.81C203.056 67.0073 203.081 67.2047 203.13 67.402C202.439 67.3033 201.847 67.1307 201.354 66.884C200.861 66.6373 200.54 66.3413 200.392 65.996C200.293 65.7493 200.022 65.3793 199.578 64.886C199.134 64.442 198.739 64.0967 198.394 63.85C197.95 63.554 197.58 62.7893 197.284 61.556C196.988 60.2733 196.84 58.8427 196.84 57.264ZM231.221 67.624C228.853 66.9333 227.2 66.2427 226.263 65.552C225.375 64.8613 224.931 63.998 224.931 62.962C224.931 62.1727 225.153 61.0627 225.597 59.632C226.041 58.2013 226.682 56.524 227.521 54.6C228.409 52.6267 229.445 50.456 230.629 48.088C231.862 45.72 233.244 43.1793 234.773 40.466C233.49 40.4167 232.331 40.392 231.295 40.392C230.308 40.3427 229.494 40.318 228.853 40.318C229.149 39.578 229.988 38.9367 231.369 38.394C232.75 37.8513 234.576 37.3827 236.845 36.988C238.769 33.7813 240.816 30.7227 242.987 27.812C245.207 24.9013 247.427 22.2373 249.647 19.82C251.867 17.3533 254.087 15.2073 256.307 13.382C258.527 11.5073 260.648 10.0273 262.671 8.942C262.72 8.59666 262.745 8.30066 262.745 8.054C262.794 7.80733 262.819 7.63466 262.819 7.536C263.51 7.536 264.422 7.70866 265.557 8.054C266.741 8.39933 267.876 8.81866 268.961 9.312C270.096 9.80533 271.082 10.3233 271.921 10.866C272.809 11.3593 273.302 11.7787 273.401 12.124C271.773 14.9853 270.17 19.2773 268.591 25C267.012 30.6733 265.705 37.4813 264.669 45.424C264.422 47.3973 264.2 49.642 264.003 52.158C263.855 54.674 263.781 57.486 263.781 60.594C263.781 61.6793 263.781 62.7893 263.781 63.924C263.781 65.0587 263.83 66.2427 263.929 67.476C263.83 67.5253 263.732 67.55 263.633 67.55C263.534 67.55 263.337 67.55 263.041 67.55C262.35 67.55 261.536 67.4267 260.599 67.18C259.711 66.9827 258.823 66.7113 257.935 66.366C257.096 66.07 256.356 65.7247 255.715 65.33C255.123 64.9353 254.753 64.59 254.605 64.294C254.556 63.6527 254.531 63.0113 254.531 62.37C254.531 61.778 254.531 61.1367 254.531 60.446C254.531 57.3873 254.63 54.2793 254.827 51.122C255.074 47.9647 255.468 44.7087 256.011 41.354C255.32 41.3047 254.408 41.2553 253.273 41.206C252.138 41.1073 250.856 41.0333 249.425 40.984C248.044 40.9347 246.539 40.8853 244.911 40.836C243.332 40.7373 241.778 40.6633 240.249 40.614C239.065 42.834 237.955 45.054 236.919 47.274C235.883 49.4447 234.995 51.64 234.255 53.86C233.416 56.228 232.726 58.596 232.183 60.964C231.69 63.332 231.369 65.552 231.221 67.624ZM259.785 23.15C259.982 22.4593 260.204 21.522 260.451 20.338C260.747 19.1047 261.018 17.822 261.265 16.49C260.032 16.934 258.65 17.748 257.121 18.932C255.641 20.116 254.087 21.596 252.459 23.372C250.88 25.0987 249.252 27.072 247.575 29.292C245.947 31.4627 244.368 33.7813 242.839 36.248C246.983 35.9027 251.694 35.6807 256.973 35.582C257.368 33.51 257.787 31.4627 258.231 29.44C258.724 27.368 259.242 25.2713 259.785 23.15ZM277.132 62.518C279.402 60.9887 281.622 59.04 283.792 56.672C285.963 54.2547 287.936 51.6647 289.712 48.902C291.488 46.09 292.993 43.1793 294.226 40.17C295.46 37.1607 296.298 34.2747 296.742 31.512C296.742 30.92 296.422 30.5253 295.78 30.328C295.09 30.328 294.128 30.9447 292.894 32.178C291.71 33.362 290.378 34.8913 288.898 36.766C287.468 38.6407 285.988 40.7373 284.458 43.056C282.978 45.3747 281.622 47.6933 280.388 50.012C279.155 52.2813 278.094 54.4273 277.206 56.45C276.368 58.4233 275.899 60.0267 275.8 61.26C275.307 61.26 274.888 60.7667 274.542 59.78C274.444 59.5333 274.271 59.2867 274.024 59.04C273.778 58.744 273.383 58.3987 272.84 58.004C272.594 57.8067 272.347 57.5847 272.1 57.338C271.854 57.042 271.681 56.7953 271.582 56.598C271.385 56.2033 271.286 55.562 271.286 54.674C271.286 51.7633 271.656 48.4827 272.396 44.832C273.136 41.1813 274.098 37.4567 275.282 33.658C276.516 29.8593 277.946 26.1347 279.574 22.484C281.202 18.784 282.88 15.4047 284.606 12.346C286.382 9.28733 288.158 6.69733 289.934 4.576C291.71 2.45466 293.388 1.04866 294.966 0.357995C295.46 0.505996 296.052 0.752664 296.742 1.098C297.433 1.44333 298.124 1.838 298.814 2.282C299.505 2.726 300.146 3.17 300.738 3.614C301.38 4.058 301.848 4.45266 302.144 4.798C296.718 9.18866 292.006 14.8373 288.01 21.744C284.064 28.6013 280.832 36.7167 278.316 46.09C279.698 43.5247 281.252 41.058 282.978 38.69C284.705 36.2727 286.407 34.1513 288.084 32.326C289.811 30.5007 291.439 29.0453 292.968 27.96C294.547 26.8747 295.854 26.332 296.89 26.332C297.68 26.5293 298.444 26.8747 299.184 27.368C299.924 27.8613 300.59 28.478 301.182 29.218C301.774 29.9087 302.268 30.6733 302.662 31.512C303.057 32.3013 303.304 33.14 303.402 34.028C303.353 36.1 302.983 38.32 302.292 40.688C301.651 43.0067 300.763 45.3007 299.628 47.57C298.543 49.8393 297.285 52.01 295.854 54.082C294.473 56.154 292.993 57.9793 291.414 59.558C289.885 61.0873 288.331 62.3207 286.752 63.258C285.223 64.1953 283.768 64.664 282.386 64.664C281.794 64.664 281.178 64.59 280.536 64.442C279.944 64.3433 279.377 64.1707 278.834 63.924C278.341 63.7267 277.922 63.5047 277.576 63.258C277.28 63.0113 277.132 62.7647 277.132 62.518ZM330.833 50.53C329.698 54.1313 328.563 57.412 327.429 60.372C326.294 63.332 325.085 66.0453 323.803 68.512C322.52 71.028 321.139 73.322 319.659 75.394C318.179 77.5153 316.551 79.5133 314.775 81.388C312.505 83.756 310.162 85.5567 307.745 86.79C305.327 88.0727 302.91 88.714 300.493 88.714C299.259 88.714 298.026 88.566 296.793 88.27C295.609 88.0233 294.499 87.6533 293.463 87.16C292.377 86.716 291.44 86.1733 290.651 85.532C289.812 84.94 289.22 84.2987 288.875 83.608C288.875 83.016 289.22 82.498 289.911 82.054C290.503 82.5967 290.996 83.016 291.391 83.312C291.785 83.608 292.18 83.8547 292.575 84.052C292.92 84.2493 293.315 84.3727 293.759 84.422C294.153 84.4713 294.622 84.496 295.165 84.496C297.977 84.496 300.715 83.6573 303.379 81.98C306.092 80.352 308.633 78.0087 311.001 74.95C313.418 71.9407 315.613 68.2653 317.587 63.924C319.56 59.632 321.237 54.822 322.619 49.494C321.977 50.4807 321.188 51.6893 320.251 53.12C319.313 54.5507 318.277 55.9813 317.143 57.412C316.008 58.7933 314.824 60.0513 313.591 61.186C312.407 62.3207 311.247 63.0853 310.113 63.48C309.323 63.4307 308.485 63.258 307.597 62.962C306.758 62.7153 305.944 62.3453 305.155 61.852C304.415 61.3587 303.749 60.7667 303.157 60.076C302.565 59.3853 302.17 58.596 301.973 57.708C301.973 56.2773 302.022 55.1427 302.121 54.304C302.219 53.416 302.392 52.454 302.639 51.418C303.083 49.5433 303.724 47.422 304.563 45.054C305.451 42.686 306.462 40.3673 307.597 38.098C308.781 35.7793 310.063 33.6333 311.445 31.66C312.875 29.6373 314.355 28.0587 315.885 26.924C316.279 26.924 316.773 26.9733 317.365 27.072C317.957 27.1213 318.573 27.2447 319.215 27.442C319.856 27.6393 320.473 27.886 321.065 28.182C321.657 28.4287 322.175 28.774 322.619 29.218C322.076 29.7113 320.892 31.364 319.067 34.176C317.241 36.988 315.219 41.0333 312.999 46.312C312.752 46.8547 312.456 47.644 312.111 48.68C311.765 49.716 311.42 50.8013 311.075 51.936C310.779 53.0707 310.507 54.1807 310.261 55.266C310.014 56.3513 309.891 57.2147 309.891 57.856C309.891 58.2507 309.94 58.5467 310.039 58.744C310.187 58.9413 310.31 59.0893 310.409 59.188C311.297 59.04 312.481 58.3247 313.961 57.042C315.441 55.71 317.118 53.6627 318.993 50.9C320.177 49.124 321.262 47.3727 322.249 45.646C323.235 43.87 324.197 42.094 325.135 40.318C326.121 38.542 327.133 36.7167 328.169 34.842C329.205 32.9673 330.315 31.0433 331.499 29.07C332.14 29.07 332.831 29.144 333.571 29.292C334.311 29.44 335.026 29.6373 335.717 29.884C336.407 30.0813 336.999 30.328 337.493 30.624C338.035 30.8707 338.43 31.142 338.677 31.438C337.147 34.694 335.717 37.876 334.385 40.984C333.053 44.092 331.869 47.274 330.833 50.53ZM362.524 32.548C362.474 33.4853 362.302 34.472 362.006 35.508C361.759 36.4947 361.438 37.4073 361.044 38.246C360.649 39.0353 360.23 39.7013 359.786 40.244C359.342 40.7867 358.922 41.058 358.528 41.058C357.985 41.0087 357.664 40.6387 357.566 39.948C357.566 39.8 357.615 39.578 357.714 39.282C357.862 38.9367 358.01 38.5667 358.158 38.172C358.306 37.7773 358.429 37.3827 358.528 36.988C358.676 36.5933 358.75 36.248 358.75 35.952C358.75 35.2613 358.577 34.694 358.232 34.25C357.936 33.7567 357.516 33.51 356.974 33.51C355 33.51 353.496 34.7433 352.46 37.21C351.424 39.6767 350.906 43.3027 350.906 48.088C350.906 48.5813 350.93 48.8773 350.98 48.976C352.016 48.9267 352.928 48.902 353.718 48.902C354.556 48.8527 355.37 48.828 356.16 48.828C356.209 48.9267 356.234 49.124 356.234 49.42C356.234 49.864 356.135 50.1847 355.938 50.382C354.803 50.6287 353.89 50.8507 353.2 51.048C352.558 51.196 352.065 51.344 351.72 51.492C351.374 51.64 351.152 51.8127 351.054 52.01C351.004 52.158 350.98 52.38 350.98 52.676C350.98 53.0707 350.98 53.4653 350.98 53.86C351.029 54.2547 351.054 54.748 351.054 55.34C351.054 59.484 349.919 62.814 347.65 65.33C345.43 67.846 342.322 69.3013 338.326 69.696C337.635 69.6467 336.92 69.4493 336.18 69.104C335.44 68.7587 334.724 68.3147 334.034 67.772C333.392 67.2293 332.825 66.6127 332.332 65.922C331.838 65.2807 331.493 64.6147 331.296 63.924C331.296 62.0493 331.69 60.2733 332.48 58.596C333.269 56.8693 334.33 55.3647 335.662 54.082C337.043 52.75 338.646 51.6893 340.472 50.9C342.346 50.0613 344.369 49.568 346.54 49.42C346.54 48.1867 346.416 46.978 346.17 45.794C345.923 44.61 345.652 43.4753 345.356 42.39C345.109 41.2553 344.862 40.17 344.616 39.134C344.369 38.0487 344.246 36.988 344.246 35.952C344.246 34.62 344.517 33.3127 345.06 32.03C345.602 30.698 346.318 29.4893 347.206 28.404C348.094 27.2693 349.13 26.3073 350.314 25.518C351.498 24.7287 352.731 24.186 354.014 23.89C354.556 24.038 355.272 24.482 356.16 25.222C357.097 25.9127 358.01 26.702 358.898 27.59C359.786 28.478 360.575 29.3907 361.266 30.328C361.956 31.216 362.376 31.956 362.524 32.548ZM338.104 66.292C339.288 65.7987 340.398 65.0833 341.434 64.146C342.519 63.2087 343.456 62.148 344.246 60.964C345.035 59.78 345.652 58.522 346.096 57.19C346.589 55.858 346.836 54.5507 346.836 53.268C345.849 53.416 344.764 53.8847 343.58 54.674C342.396 55.414 341.286 56.3267 340.25 57.412C339.214 58.448 338.35 59.5333 337.66 60.668C336.969 61.8027 336.624 62.7893 336.624 63.628C336.624 64.7133 337.117 65.6013 338.104 66.292ZM385.886 32.548C385.836 33.4853 385.664 34.472 385.368 35.508C385.121 36.4947 384.8 37.4073 384.406 38.246C384.011 39.0353 383.592 39.7013 383.148 40.244C382.704 40.7867 382.284 41.058 381.89 41.058C381.347 41.0087 381.026 40.6387 380.928 39.948C380.928 39.8 380.977 39.578 381.076 39.282C381.224 38.9367 381.372 38.5667 381.52 38.172C381.668 37.7773 381.791 37.3827 381.89 36.988C382.038 36.5933 382.112 36.248 382.112 35.952C382.112 35.2613 381.939 34.694 381.594 34.25C381.298 33.7567 380.878 33.51 380.336 33.51C378.362 33.51 376.858 34.7433 375.822 37.21C374.786 39.6767 374.268 43.3027 374.268 48.088C374.268 48.5813 374.292 48.8773 374.342 48.976C375.378 48.9267 376.29 48.902 377.08 48.902C377.918 48.8527 378.732 48.828 379.522 48.828C379.571 48.9267 379.596 49.124 379.596 49.42C379.596 49.864 379.497 50.1847 379.3 50.382C378.165 50.6287 377.252 50.8507 376.562 51.048C375.92 51.196 375.427 51.344 375.082 51.492C374.736 51.64 374.514 51.8127 374.416 52.01C374.366 52.158 374.342 52.38 374.342 52.676C374.342 53.0707 374.342 53.4653 374.342 53.86C374.391 54.2547 374.416 54.748 374.416 55.34C374.416 59.484 373.281 62.814 371.012 65.33C368.792 67.846 365.684 69.3013 361.688 69.696C360.997 69.6467 360.282 69.4493 359.542 69.104C358.802 68.7587 358.086 68.3147 357.396 67.772C356.754 67.2293 356.187 66.6127 355.694 65.922C355.2 65.2807 354.855 64.6147 354.658 63.924C354.658 62.0493 355.052 60.2733 355.842 58.596C356.631 56.8693 357.692 55.3647 359.024 54.082C360.405 52.75 362.008 51.6893 363.834 50.9C365.708 50.0613 367.731 49.568 369.902 49.42C369.902 48.1867 369.778 46.978 369.532 45.794C369.285 44.61 369.014 43.4753 368.718 42.39C368.471 41.2553 368.224 40.17 367.978 39.134C367.731 38.0487 367.608 36.988 367.608 35.952C367.608 34.62 367.879 33.3127 368.422 32.03C368.964 30.698 369.68 29.4893 370.568 28.404C371.456 27.2693 372.492 26.3073 373.676 25.518C374.86 24.7287 376.093 24.186 377.376 23.89C377.918 24.038 378.634 24.482 379.522 25.222C380.459 25.9127 381.372 26.702 382.26 27.59C383.148 28.478 383.937 29.3907 384.628 30.328C385.318 31.216 385.738 31.956 385.886 32.548ZM361.466 66.292C362.65 65.7987 363.76 65.0833 364.796 64.146C365.881 63.2087 366.818 62.148 367.608 60.964C368.397 59.78 369.014 58.522 369.458 57.19C369.951 55.858 370.198 54.5507 370.198 53.268C369.211 53.416 368.126 53.8847 366.942 54.674C365.758 55.414 364.648 56.3267 363.612 57.412C362.576 58.448 361.712 59.5333 361.022 60.668C360.331 61.8027 359.986 62.7893 359.986 63.628C359.986 64.7133 360.479 65.6013 361.466 66.292Z" fill="#FF0000" style="mix-blend-mode:lighten"/>
</svg>
